<svg width="746" height="453" viewBox="0 0 746 453" fill="none" xmlns="http://www.w3.org/2000/svg">
<g clip-path="url(#clip0)">
<path d="M181.827 348.056C178.772 349.702 176.62 354.841 177.024 359.47L178.97 381.648C179.374 386.276 182.205 388.657 185.26 387.011L446.433 258.963C449.488 257.317 451.64 252.178 451.236 247.549L449.29 225.371C448.887 220.743 446.055 218.362 443 220.008L181.827 348.056Z" fill="url(#paint0_linear)"/>
<path d="M445.014 219.339L305.783 166.231C302.88 166.314 300.029 167.104 297.477 168.455L38.7543 294.586L182.47 348.013L445.014 219.339Z" fill="url(#paint1_linear)"/>
<path d="M182.016 387.254L40.3115 333.701C38.1158 333.732 36.2525 332.121 36.0924 329.933L34.2094 304.192L177.311 357.854C177.311 357.854 178.851 376.245 179.496 382.409C179.929 386.283 182.016 387.254 182.016 387.254Z" fill="url(#paint2_linear)"/>
<path d="M38.7544 294.586C34.5512 297.222 34.2455 300.996 34.2378 304.426L177.345 358.152C177.384 354.268 179.424 349.46 182.228 348.027L182.485 348.008L38.7544 294.586Z" fill="url(#paint3_linear)"/>
<g opacity="0.6">
<path d="M249.332 331.45C250.07 329.696 251.15 328.269 252.471 327.566C253.791 326.862 255.021 327.056 255.932 327.875C256.899 328.692 257.547 330.189 257.706 332.146C257.864 334.104 257.467 336.13 256.728 337.884C255.99 339.639 254.91 341.065 253.59 341.769C252.27 342.473 251.039 342.278 250.128 341.459C249.162 340.642 248.513 339.145 248.355 337.188C248.197 335.231 248.593 333.148 249.332 331.45Z" fill="url(#paint4_linear)"/>
<path d="M228.774 346.799C228.932 348.756 229.581 350.254 230.547 351.071C231.514 351.888 232.744 352.083 234.009 351.38C235.329 350.677 236.41 349.25 237.148 347.496C237.886 345.741 238.283 343.715 238.125 341.758C237.967 339.801 237.318 338.304 236.351 337.487C235.385 336.669 234.154 336.475 232.89 337.177C231.569 337.881 230.489 339.307 229.751 341.062C229.013 342.816 228.616 344.842 228.774 346.799Z" fill="url(#paint5_linear)"/>
<path d="M209.193 356.411C209.351 358.368 210 359.865 210.967 360.683C211.933 361.5 213.164 361.694 214.428 360.992C215.749 360.288 216.829 358.862 217.567 357.107C218.305 355.353 218.702 353.327 218.544 351.37C218.386 349.413 217.737 347.915 216.771 347.098C215.804 346.281 214.574 346.086 213.309 346.789C211.989 347.492 210.908 348.919 210.17 350.673C209.377 352.429 209.035 354.454 209.193 356.411Z" fill="url(#paint6_linear)"/>
<path d="M333.336 290.85C334.074 289.095 335.154 287.669 336.474 286.965C337.795 286.261 339.025 286.456 339.936 287.274C340.903 288.092 341.551 289.589 341.709 291.546C341.867 293.503 341.47 295.529 340.732 297.284C339.994 299.038 338.914 300.464 337.593 301.168C336.273 301.872 335.043 301.677 334.132 300.859C333.165 300.041 332.517 298.544 332.358 296.587C332.2 294.63 332.596 292.548 333.336 290.85Z" fill="url(#paint7_linear)"/>
<path d="M312.778 306.199C312.936 308.156 313.584 309.653 314.551 310.47C315.518 311.288 316.748 311.482 318.013 310.78C319.333 310.076 320.413 308.65 321.151 306.895C321.889 305.141 322.287 303.115 322.129 301.157C321.97 299.2 321.322 297.703 320.355 296.886C319.388 296.069 318.158 295.874 316.893 296.577C315.573 297.28 314.493 298.707 313.755 300.461C313.017 302.215 312.619 304.242 312.778 306.199Z" fill="url(#paint8_linear)"/>
<path d="M293.197 315.81C293.355 317.768 294.004 319.265 294.97 320.082C295.937 320.899 297.167 321.094 298.432 320.391C299.752 319.688 300.832 318.261 301.57 316.507C302.309 314.752 302.706 312.726 302.548 310.769C302.39 308.812 301.741 307.315 300.774 306.498C299.808 305.68 298.577 305.486 297.313 306.188C295.992 306.892 294.912 308.318 294.174 310.073C293.38 311.828 293.039 313.853 293.197 315.81Z" fill="url(#paint9_linear)"/>
<path d="M409.611 253.127C410.349 251.372 411.43 249.946 412.75 249.242C414.07 248.538 415.301 248.733 416.212 249.552C417.178 250.369 417.827 251.866 417.985 253.823C418.143 255.78 417.746 257.806 417.008 259.561C416.27 261.315 415.189 262.742 413.869 263.445C412.549 264.149 411.318 263.954 410.407 263.136C409.441 262.319 408.792 260.821 408.634 258.864C408.476 256.907 408.872 254.825 409.611 253.127Z" fill="url(#paint10_linear)"/>
<path d="M389.053 268.476C389.211 270.433 389.86 271.93 390.827 272.747C391.793 273.565 393.024 273.759 394.288 273.057C395.609 272.353 396.689 270.927 397.427 269.172C398.165 267.418 398.562 265.392 398.404 263.435C398.246 261.478 397.597 259.98 396.631 259.163C395.664 258.346 394.434 258.151 393.169 258.854C391.849 259.557 390.768 260.984 390.03 262.738C389.292 264.493 388.895 266.519 389.053 268.476Z" fill="url(#paint11_linear)"/>
<path d="M369.472 278.088C369.631 280.045 370.279 281.542 371.246 282.359C372.213 283.176 373.443 283.371 374.707 282.669C376.028 281.965 377.108 280.538 377.846 278.784C378.584 277.03 378.982 275.003 378.823 273.046C378.665 271.089 378.017 269.592 377.05 268.775C376.083 267.957 374.853 267.763 373.588 268.465C372.268 269.169 371.188 270.595 370.45 272.35C369.656 274.105 369.314 276.13 369.472 278.088Z" fill="url(#paint12_linear)"/>
</g>
</g>
<path d="M405.723 12.8566C411.919 9.27178 419.558 9.27178 425.754 12.8567L475.754 41.7852C481.933 45.3603 485.739 51.9578 485.739 59.0966V117.027C485.739 124.166 481.933 130.763 475.754 134.338L425.754 163.267C419.558 166.852 411.919 166.852 405.723 163.267L355.723 134.338C349.544 130.763 345.739 124.166 345.739 117.027V59.0966C345.739 51.9578 349.544 45.3603 355.723 41.7852L405.723 12.8566Z" fill="url(#paint13_radial)"/>
<path d="M305.723 68.8566C311.919 65.2718 319.558 65.2718 325.754 68.8567L375.754 97.7852C381.933 101.36 385.739 107.958 385.739 115.097V173.027C385.739 180.166 381.933 186.763 375.754 190.338L325.754 219.267C319.558 222.852 311.919 222.852 305.723 219.267L255.723 190.338C249.544 186.763 245.739 180.166 245.739 173.027V115.097C245.739 107.958 249.544 101.36 255.723 97.7852L305.723 68.8566Z" fill="url(#paint14_radial)"/>
<g filter="url(#filter0_d)">
<path d="M206.723 119.857C212.919 116.272 220.558 116.272 226.754 119.857L276.754 148.785C282.933 152.36 286.739 158.958 286.739 166.097V224.027C286.739 231.166 282.933 237.763 276.754 241.338L226.754 270.267C220.558 273.852 212.919 273.852 206.723 270.267L156.723 241.338C150.544 237.763 146.739 231.166 146.739 224.027V166.097C146.739 158.958 150.544 152.36 156.723 148.785L206.723 119.857Z" fill="url(#paint15_radial)"/>
</g>
<path d="M106.723 176.857C112.919 173.272 120.558 173.272 126.754 176.857L176.754 205.785C182.933 209.36 186.739 215.958 186.739 223.097V281.027C186.739 288.166 182.933 294.763 176.754 298.338L126.754 327.267C120.558 330.852 112.919 330.852 106.723 327.267L56.7227 298.338C50.5436 294.763 46.7385 288.166 46.7385 281.027V223.097C46.7385 215.958 50.5436 209.36 56.7227 205.785L106.723 176.857Z" fill="url(#paint16_radial)"/>
<g opacity="0.5" clip-path="url(#clip1)">
<path d="M460.473 209.739C457.418 211.386 455.266 216.524 455.67 221.153L457.616 243.331C458.019 247.96 460.851 250.341 463.906 248.694L725.079 120.646C728.134 119 730.286 113.861 729.882 109.233L727.936 87.0547C727.532 82.426 724.701 80.0449 721.646 81.6912L460.473 209.739Z" fill="url(#paint17_linear)"/>
<path d="M723.66 81.0223L584.429 27.9145C581.526 27.9971 578.674 28.7875 576.123 30.1383L317.4 156.269L461.115 209.697L723.66 81.0223Z" fill="url(#paint18_linear)"/>
<path d="M460.662 248.937L318.957 195.385C316.761 195.416 314.898 193.805 314.738 191.617L312.855 165.876L455.957 219.538C455.957 219.538 457.496 237.928 458.141 244.092C458.575 247.966 460.662 248.937 460.662 248.937Z" fill="url(#paint19_linear)"/>
<path d="M317.4 156.269C313.197 158.905 312.891 162.68 312.883 166.109L455.99 219.836C456.029 215.951 458.07 211.144 460.874 209.71L461.131 209.691L317.4 156.269Z" fill="url(#paint20_linear)"/>
<g opacity="0.6">
<path d="M527.978 193.133C528.716 191.379 529.796 189.953 531.116 189.249C532.437 188.545 533.667 188.74 534.578 189.558C535.545 190.376 536.193 191.873 536.351 193.83C536.51 195.787 536.112 197.813 535.374 199.568C534.636 201.322 533.556 202.748 532.236 203.452C530.915 204.156 529.685 203.961 528.774 203.143C527.807 202.325 527.159 200.828 527.001 198.871C526.842 196.914 527.238 194.832 527.978 193.133Z" fill="url(#paint21_linear)"/>
<path d="M507.42 208.483C507.578 210.44 508.226 211.937 509.193 212.754C510.16 213.572 511.39 213.766 512.655 213.064C513.975 212.36 515.055 210.934 515.793 209.179C516.531 207.425 516.929 205.398 516.771 203.441C516.612 201.484 515.964 199.987 514.997 199.17C514.03 198.353 512.8 198.158 511.535 198.86C510.215 199.564 509.135 200.991 508.397 202.745C507.659 204.499 507.261 206.526 507.42 208.483Z" fill="url(#paint22_linear)"/>
<path d="M487.839 218.094C487.997 220.051 488.646 221.549 489.612 222.366C490.579 223.183 491.809 223.378 493.074 222.675C494.394 221.972 495.474 220.545 496.213 218.791C496.951 217.036 497.348 215.01 497.19 213.053C497.032 211.096 496.383 209.599 495.416 208.782C494.45 207.964 493.219 207.77 491.955 208.472C490.634 209.176 489.554 210.602 488.816 212.357C488.022 214.112 487.681 216.137 487.839 218.094Z" fill="url(#paint23_linear)"/>
<path d="M611.981 152.533C612.719 150.779 613.8 149.352 615.12 148.648C616.44 147.944 617.671 148.139 618.582 148.958C619.548 149.775 620.197 151.272 620.355 153.229C620.513 155.186 620.116 157.213 619.378 158.967C618.64 160.721 617.56 162.148 616.239 162.852C614.919 163.555 613.689 163.361 612.778 162.542C611.811 161.725 611.162 160.228 611.004 158.271C610.846 156.314 611.242 154.231 611.981 152.533Z" fill="url(#paint24_linear)"/>
<path d="M591.423 167.882C591.581 169.839 592.23 171.336 593.197 172.154C594.163 172.971 595.394 173.166 596.658 172.463C597.979 171.759 599.059 170.333 599.797 168.579C600.535 166.824 600.932 164.798 600.774 162.841C600.616 160.884 599.967 159.387 599.001 158.569C598.034 157.752 596.804 157.557 595.539 158.26C594.219 158.964 593.139 160.39 592.401 162.144C591.662 163.899 591.265 165.925 591.423 167.882Z" fill="url(#paint25_linear)"/>
<path d="M571.843 177.494C572.001 179.451 572.649 180.948 573.616 181.765C574.583 182.583 575.813 182.777 577.078 182.075C578.398 181.371 579.478 179.945 580.216 178.19C580.954 176.436 581.352 174.409 581.193 172.452C581.035 170.495 580.387 168.998 579.42 168.181C578.453 167.364 577.223 167.169 575.958 167.871C574.638 168.575 573.558 170.002 572.82 171.756C572.026 173.512 571.684 175.537 571.843 177.494Z" fill="url(#paint26_linear)"/>
<path d="M688.257 114.81C688.995 113.056 690.075 111.629 691.396 110.925C692.716 110.222 693.946 110.416 694.857 111.235C695.824 112.052 696.473 113.549 696.631 115.506C696.789 117.463 696.392 119.49 695.653 121.244C694.915 122.998 693.835 124.425 692.515 125.129C691.195 125.833 689.964 125.638 689.053 124.819C688.087 124.002 687.438 122.505 687.28 120.548C687.122 118.591 687.518 116.508 688.257 114.81Z" fill="url(#paint27_linear)"/>
<path d="M667.699 130.159C667.857 132.116 668.506 133.614 669.472 134.431C670.439 135.248 671.669 135.443 672.934 134.74C674.254 134.036 675.335 132.61 676.073 130.856C676.811 129.101 677.208 127.075 677.05 125.118C676.892 123.161 676.243 121.664 675.276 120.846C674.31 120.029 673.079 119.834 671.815 120.537C670.494 121.241 669.414 122.667 668.676 124.422C667.938 126.176 667.541 128.202 667.699 130.159Z" fill="url(#paint28_linear)"/>
<path d="M648.118 139.771C648.276 141.728 648.925 143.225 649.892 144.042C650.858 144.86 652.089 145.054 653.353 144.352C654.674 143.648 655.754 142.222 656.492 140.467C657.23 138.713 657.627 136.687 657.469 134.729C657.311 132.772 656.662 131.275 655.696 130.458C654.729 129.641 653.499 129.446 652.234 130.149C650.914 130.852 649.833 132.279 649.095 134.033C648.302 135.789 647.96 137.814 648.118 139.771Z" fill="url(#paint29_linear)"/>
</g>
</g>
<defs>
<filter id="filter0_d" x="116.739" y="87.168" width="200" height="215.788" filterUnits="userSpaceOnUse" color-interpolation-filters="sRGB">
<feFlood flood-opacity="0" result="BackgroundImageFix"/>
<feColorMatrix in="SourceAlpha" type="matrix" values="0 0 0 0 0 0 0 0 0 0 0 0 0 0 0 0 0 0 127 0"/>
<feOffset/>
<feGaussianBlur stdDeviation="15"/>
<feColorMatrix type="matrix" values="0 0 0 0 1 0 0 0 0 1 0 0 0 0 1 0 0 0 0.5 0"/>
<feBlend mode="normal" in2="BackgroundImageFix" result="effect1_dropShadow"/>
<feBlend mode="normal" in="SourceGraphic" in2="effect1_dropShadow" result="shape"/>
</filter>
<linearGradient id="paint0_linear" x1="370.215" y1="377.682" x2="230.872" y2="267.581" gradientUnits="userSpaceOnUse">
<stop stop-color="#7D8588"/>
<stop offset="1" stop-color="#A9AFB1"/>
</linearGradient>
<linearGradient id="paint1_linear" x1="581.885" y1="225.335" x2="573.329" y2="341.252" gradientUnits="userSpaceOnUse">
<stop stop-color="#CFC2C2"/>
<stop offset="1" stop-color="#E8E2E2"/>
</linearGradient>
<linearGradient id="paint2_linear" x1="225.119" y1="333.893" x2="192.902" y2="247.75" gradientUnits="userSpaceOnUse">
<stop stop-color="#C9CDCE"/>
<stop offset="1" stop-color="#E4E4E4"/>
</linearGradient>
<linearGradient id="paint3_linear" x1="226.598" y1="312.761" x2="221.06" y2="255.347" gradientUnits="userSpaceOnUse">
<stop stop-color="#DDDDDE"/>
<stop offset="1" stop-color="#BEBEBE"/>
</linearGradient>
<linearGradient id="paint4_linear" x1="247.681" y1="344.751" x2="262.259" y2="337.509" gradientUnits="userSpaceOnUse">
<stop stop-color="#6E7070"/>
<stop offset="1" stop-color="#575757"/>
</linearGradient>
<linearGradient id="paint5_linear" x1="228.1" y1="354.363" x2="242.678" y2="347.121" gradientUnits="userSpaceOnUse">
<stop stop-color="#6E7070"/>
<stop offset="1" stop-color="#575757"/>
</linearGradient>
<linearGradient id="paint6_linear" x1="208.517" y1="363.974" x2="223.097" y2="356.731" gradientUnits="userSpaceOnUse">
<stop stop-color="#6E7070"/>
<stop offset="1" stop-color="#575757"/>
</linearGradient>
<linearGradient id="paint7_linear" x1="331.684" y1="304.15" x2="346.262" y2="296.909" gradientUnits="userSpaceOnUse">
<stop stop-color="#6E7070"/>
<stop offset="1" stop-color="#575757"/>
</linearGradient>
<linearGradient id="paint8_linear" x1="312.103" y1="313.762" x2="326.682" y2="306.52" gradientUnits="userSpaceOnUse">
<stop stop-color="#6E7070"/>
<stop offset="1" stop-color="#575757"/>
</linearGradient>
<linearGradient id="paint9_linear" x1="292.521" y1="323.374" x2="307.101" y2="316.13" gradientUnits="userSpaceOnUse">
<stop stop-color="#6E7070"/>
<stop offset="1" stop-color="#575757"/>
</linearGradient>
<linearGradient id="paint10_linear" x1="407.96" y1="266.428" x2="422.538" y2="259.186" gradientUnits="userSpaceOnUse">
<stop stop-color="#6E7070"/>
<stop offset="1" stop-color="#575757"/>
</linearGradient>
<linearGradient id="paint11_linear" x1="388.379" y1="276.039" x2="402.957" y2="268.797" gradientUnits="userSpaceOnUse">
<stop stop-color="#6E7070"/>
<stop offset="1" stop-color="#575757"/>
</linearGradient>
<linearGradient id="paint12_linear" x1="368.796" y1="285.651" x2="383.376" y2="278.407" gradientUnits="userSpaceOnUse">
<stop stop-color="#6E7070"/>
<stop offset="1" stop-color="#575757"/>
</linearGradient>
<radialGradient id="paint13_radial" cx="0" cy="0" r="1" gradientUnits="userSpaceOnUse" gradientTransform="translate(421.239 -63.9382) rotate(97.5856) scale(208.323 397.113)">
<stop offset="0.192663" stop-color="white"/>
<stop offset="1" stop-color="white" stop-opacity="0"/>
</radialGradient>
<radialGradient id="paint14_radial" cx="0" cy="0" r="1" gradientUnits="userSpaceOnUse" gradientTransform="translate(321.239 -7.93822) rotate(97.5856) scale(208.323 397.113)">
<stop offset="0.192663" stop-color="white"/>
<stop offset="1" stop-color="white" stop-opacity="0"/>
</radialGradient>
<radialGradient id="paint15_radial" cx="0" cy="0" r="1" gradientUnits="userSpaceOnUse" gradientTransform="translate(164.951 -113.896) rotate(81.7325) scale(396.767 756.33)">
<stop stop-color="#4B0491"/>
<stop offset="1" stop-color="#E52451"/>
</radialGradient>
<radialGradient id="paint16_radial" cx="0" cy="0" r="1" gradientUnits="userSpaceOnUse" gradientTransform="translate(122.239 100.062) rotate(97.5856) scale(208.323 397.113)">
<stop offset="0.192663" stop-color="white"/>
<stop offset="1" stop-color="white" stop-opacity="0"/>
</radialGradient>
<linearGradient id="paint17_linear" x1="648.861" y1="239.366" x2="509.518" y2="129.265" gradientUnits="userSpaceOnUse">
<stop stop-color="#7D8588"/>
<stop offset="1" stop-color="#A9AFB1"/>
</linearGradient>
<linearGradient id="paint18_linear" x1="860.53" y1="87.0181" x2="851.974" y2="202.935" gradientUnits="userSpaceOnUse">
<stop stop-color="#CFC2C2"/>
<stop offset="1" stop-color="#E8E2E2"/>
</linearGradient>
<linearGradient id="paint19_linear" x1="503.765" y1="195.576" x2="471.547" y2="109.434" gradientUnits="userSpaceOnUse">
<stop stop-color="#C9CDCE"/>
<stop offset="1" stop-color="#E4E4E4"/>
</linearGradient>
<linearGradient id="paint20_linear" x1="505.243" y1="174.445" x2="499.706" y2="117.031" gradientUnits="userSpaceOnUse">
<stop stop-color="#DDDDDE"/>
<stop offset="1" stop-color="#BEBEBE"/>
</linearGradient>
<linearGradient id="paint21_linear" x1="526.326" y1="206.434" x2="540.904" y2="199.193" gradientUnits="userSpaceOnUse">
<stop stop-color="#6E7070"/>
<stop offset="1" stop-color="#575757"/>
</linearGradient>
<linearGradient id="paint22_linear" x1="506.745" y1="216.046" x2="521.324" y2="208.804" gradientUnits="userSpaceOnUse">
<stop stop-color="#6E7070"/>
<stop offset="1" stop-color="#575757"/>
</linearGradient>
<linearGradient id="paint23_linear" x1="487.163" y1="225.658" x2="501.743" y2="218.414" gradientUnits="userSpaceOnUse">
<stop stop-color="#6E7070"/>
<stop offset="1" stop-color="#575757"/>
</linearGradient>
<linearGradient id="paint24_linear" x1="610.33" y1="165.834" x2="624.908" y2="158.592" gradientUnits="userSpaceOnUse">
<stop stop-color="#6E7070"/>
<stop offset="1" stop-color="#575757"/>
</linearGradient>
<linearGradient id="paint25_linear" x1="590.749" y1="175.445" x2="605.327" y2="168.204" gradientUnits="userSpaceOnUse">
<stop stop-color="#6E7070"/>
<stop offset="1" stop-color="#575757"/>
</linearGradient>
<linearGradient id="paint26_linear" x1="571.166" y1="185.057" x2="585.746" y2="177.813" gradientUnits="userSpaceOnUse">
<stop stop-color="#6E7070"/>
<stop offset="1" stop-color="#575757"/>
</linearGradient>
<linearGradient id="paint27_linear" x1="686.606" y1="128.111" x2="701.184" y2="120.869" gradientUnits="userSpaceOnUse">
<stop stop-color="#6E7070"/>
<stop offset="1" stop-color="#575757"/>
</linearGradient>
<linearGradient id="paint28_linear" x1="667.025" y1="137.722" x2="681.603" y2="130.481" gradientUnits="userSpaceOnUse">
<stop stop-color="#6E7070"/>
<stop offset="1" stop-color="#575757"/>
</linearGradient>
<linearGradient id="paint29_linear" x1="647.442" y1="147.334" x2="662.022" y2="140.09" gradientUnits="userSpaceOnUse">
<stop stop-color="#6E7070"/>
<stop offset="1" stop-color="#575757"/>
</linearGradient>
<clipPath id="clip0">
<rect width="444.783" height="275.978" fill="white" transform="matrix(-0.996162 -0.0875248 -0.0875248 0.996162 467.231 177.246)"/>
</clipPath>
<clipPath id="clip1">
<rect width="444.783" height="275.978" fill="white" transform="matrix(-0.996162 -0.0875248 -0.0875248 0.996162 745.877 38.9294)"/>
</clipPath>
</defs>
</svg>
