<svg viewBox="0 0 419 378" fill="none" xmlns="http://www.w3.org/2000/svg">
<g clip-path="url(#clip0)">
<path d="M260.332 219.657H106.857C101.653 219.651 96.6629 217.579 92.9827 213.897C89.3025 210.214 87.2324 205.221 87.2266 200.013V19.6441C87.2324 14.436 89.3025 9.44283 92.9827 5.76012C96.6629 2.07741 101.653 0.0058831 106.857 0H249.641L279.963 24.1854V200.013C279.957 205.221 277.887 210.214 274.206 213.897C270.526 217.579 265.537 219.651 260.332 219.657Z" fill="#E6E6E6"/>
<path d="M106.857 5.65527C103.15 5.65945 99.5972 7.13463 96.9765 9.75717C94.3558 12.3797 92.8816 15.9354 92.8774 19.6442V200.013C92.8816 203.722 94.3558 207.277 96.9765 209.9C99.5972 212.522 103.15 213.998 106.857 214.002H260.332C264.038 213.998 267.591 212.522 270.212 209.9C272.833 207.277 274.307 203.722 274.311 200.013V26.9099L247.663 5.65527H106.857Z" fill="white"/>
<path d="M230.481 58.1016H160.606C160.177 58.1016 159.752 58.017 159.355 57.8526C158.958 57.6882 158.598 57.4472 158.294 57.1435C157.991 56.8397 157.75 56.4791 157.586 56.0822C157.421 55.6853 157.337 55.2599 157.337 54.8303C157.337 54.4008 157.421 53.9754 157.586 53.5785C157.75 53.1816 157.991 52.821 158.294 52.5172C158.598 52.2134 158.958 51.9725 159.355 51.8081C159.752 51.6437 160.177 51.5591 160.606 51.5591H230.481C230.91 51.5591 231.335 51.6437 231.732 51.8081C232.129 51.9725 232.489 52.2134 232.793 52.5172C233.096 52.821 233.337 53.1816 233.501 53.5785C233.665 53.9754 233.75 54.4008 233.75 54.8303C233.75 55.2599 233.665 55.6853 233.501 56.0822C233.337 56.4791 233.096 56.8397 232.793 57.1435C232.489 57.4472 232.129 57.6882 231.732 57.8526C231.335 58.017 230.91 58.1016 230.481 58.1016Z" fill="#CCCCCC"/>
<path d="M243.966 69.1417H160.606C159.739 69.1417 158.907 68.797 158.294 68.1835C157.681 67.57 157.337 66.738 157.337 65.8704C157.337 65.0028 157.681 64.1707 158.294 63.5573C158.907 62.9438 159.739 62.5991 160.606 62.5991H243.966C244.833 62.5991 245.664 62.9438 246.277 63.5573C246.89 64.1707 247.235 65.0028 247.235 65.8704C247.235 66.738 246.89 67.57 246.277 68.1835C245.664 68.797 244.833 69.1417 243.966 69.1417Z" fill="#CCCCCC"/>
<path d="M230.481 107.58H160.606C159.739 107.58 158.907 107.235 158.294 106.622C157.681 106.008 157.337 105.176 157.337 104.308C157.337 103.441 157.681 102.609 158.294 101.995C158.907 101.382 159.739 101.037 160.606 101.037H230.481C231.348 101.037 232.179 101.382 232.793 101.995C233.406 102.609 233.75 103.441 233.75 104.308C233.75 105.176 233.406 106.008 232.793 106.622C232.179 107.235 231.348 107.58 230.481 107.58Z" fill="#CCCCCC"/>
<path d="M243.966 118.62H160.606C159.739 118.62 158.907 118.275 158.294 117.662C157.681 117.048 157.337 116.216 157.337 115.348C157.337 114.481 157.681 113.649 158.294 113.035C158.907 112.422 159.739 112.077 160.606 112.077H243.966C244.833 112.077 245.664 112.422 246.277 113.035C246.89 113.649 247.235 114.481 247.235 115.348C247.235 116.216 246.89 117.048 246.277 117.662C245.664 118.275 244.833 118.62 243.966 118.62Z" fill="#CCCCCC"/>
<path d="M230.481 157.057H160.606C159.739 157.057 158.907 156.713 158.294 156.099C157.681 155.486 157.337 154.654 157.337 153.786C157.337 152.918 157.681 152.086 158.294 151.473C158.907 150.859 159.739 150.515 160.606 150.515H230.481C231.348 150.515 232.179 150.859 232.793 151.473C233.406 152.086 233.75 152.918 233.75 153.786C233.75 154.654 233.406 155.486 232.793 156.099C232.179 156.713 231.348 157.057 230.481 157.057Z" fill="#CCCCCC"/>
<path d="M243.966 168.098H160.606C159.739 168.098 158.907 167.753 158.294 167.14C157.681 166.526 157.337 165.694 157.337 164.826C157.337 163.959 157.681 163.127 158.294 162.513C158.907 161.9 159.739 161.555 160.606 161.555H243.966C244.833 161.555 245.664 161.9 246.277 162.513C246.89 163.127 247.235 163.959 247.235 164.826C247.235 165.694 246.89 166.526 246.277 167.14C245.664 167.753 244.833 168.098 243.966 168.098Z" fill="#CCCCCC"/>
<path d="M131.508 71.9128C137.889 71.9128 143.062 66.7363 143.062 60.3507C143.062 53.9651 137.889 48.7886 131.508 48.7886C125.127 48.7886 119.954 53.9651 119.954 60.3507C119.954 66.7363 125.127 71.9128 131.508 71.9128Z" fill="#B31B1B"/>
<path d="M130.363 64.7608C130.103 64.7613 129.85 64.6771 129.642 64.5211L129.629 64.5114L126.914 62.4328C126.66 62.2378 126.494 61.9501 126.453 61.6327C126.411 61.3154 126.497 60.9945 126.691 60.7404C126.886 60.4864 127.173 60.3201 127.491 60.2781C127.808 60.236 128.128 60.3216 128.382 60.5162L130.141 61.8658L134.297 56.4399C134.394 56.3141 134.514 56.2086 134.651 56.1293C134.788 56.0499 134.94 55.9984 135.097 55.9777C135.254 55.9569 135.413 55.9673 135.566 56.0083C135.719 56.0492 135.863 56.12 135.988 56.2164L135.989 56.2167L135.963 56.2525L135.99 56.2167C136.243 56.4117 136.409 56.6995 136.451 57.0168C136.493 57.3341 136.407 57.6551 136.213 57.9093L131.324 64.2885C131.211 64.4355 131.066 64.5544 130.899 64.6361C130.733 64.7178 130.55 64.7599 130.364 64.7594L130.363 64.7608Z" fill="white"/>
<path d="M132.698 121.39C139.079 121.39 144.252 116.214 144.252 109.828C144.252 103.443 139.079 98.2661 132.698 98.2661C126.317 98.2661 121.144 103.443 121.144 109.828C121.144 116.214 126.317 121.39 132.698 121.39Z" fill="#CCCCCC"/>
<path d="M131.508 170.868C137.889 170.868 143.062 165.692 143.062 159.306C143.062 152.921 137.889 147.744 131.508 147.744C125.127 147.744 119.954 152.921 119.954 159.306C119.954 165.692 125.127 170.868 131.508 170.868Z" fill="#CCCCCC"/>
<path d="M279.372 24.9637H255.62C253.886 24.9637 252.223 24.2744 250.997 23.0475C249.771 21.8205 249.082 20.1564 249.082 18.4212V0.865947C249.082 0.789088 249.104 0.713779 249.144 0.648668C249.185 0.583557 249.244 0.531274 249.313 0.497815C249.382 0.464355 249.459 0.451072 249.535 0.459493C249.612 0.467913 249.684 0.497693 249.744 0.54542L279.626 24.2343C279.693 24.287 279.741 24.3591 279.765 24.4407C279.788 24.5222 279.786 24.6091 279.758 24.6893C279.73 24.7694 279.678 24.8389 279.609 24.8881C279.54 24.9373 279.457 24.9637 279.372 24.9637Z" fill="#E6E6E6"/>
<path d="M118.585 253.452L27.7816 272.605C25.1575 273.155 22.4223 272.642 20.1762 271.177C17.9301 269.711 16.3565 267.415 15.8005 264.79L0.21879 190.815C-0.331243 188.189 0.182081 185.452 1.64614 183.205C3.11021 180.957 5.40544 179.382 8.0283 178.826L98.8319 159.673C101.456 159.123 104.191 159.636 106.437 161.101C108.683 162.566 110.257 164.863 110.813 167.488L126.395 241.463C126.945 244.088 126.431 246.825 124.967 249.073C123.503 251.321 121.208 252.896 118.585 253.452Z" fill="white"/>
<path d="M118.585 253.452L27.7816 272.605C25.1575 273.155 22.4223 272.642 20.1762 271.177C17.9301 269.711 16.3565 267.415 15.8005 264.79L0.21879 190.815C-0.331243 188.189 0.182081 185.452 1.64614 183.205C3.11021 180.957 5.40544 179.382 8.0283 178.826L98.8319 159.673C101.456 159.123 104.191 159.636 106.437 161.101C108.683 162.566 110.257 164.863 110.813 167.488L126.395 241.463C126.945 244.088 126.431 246.825 124.967 249.073C123.503 251.321 121.208 252.896 118.585 253.452ZM8.27368 179.991C5.9594 180.482 3.93421 181.871 2.64239 183.855C1.35057 185.838 0.897625 188.253 1.38293 190.57L16.9647 264.544C17.4552 266.86 18.8437 268.887 20.8256 270.18C22.8074 271.472 25.2208 271.926 27.5362 271.44L118.34 252.287C120.654 251.796 122.679 250.407 123.971 248.423C125.263 246.44 125.716 244.025 125.231 241.708L109.649 167.734C109.158 165.418 107.77 163.391 105.788 162.098C103.806 160.806 101.393 160.352 99.0773 160.838L8.27368 179.991Z" fill="#3F3D56"/>
<path d="M93.1898 184.064L47.3624 193.731C46.9614 193.824 46.5399 193.761 46.1833 193.555C45.8267 193.349 45.5615 193.016 45.4414 192.622C45.3864 192.416 45.3739 192.201 45.4045 191.991C45.4352 191.78 45.5083 191.578 45.6196 191.397C45.7309 191.216 45.8778 191.059 46.0516 190.937C46.2254 190.814 46.4223 190.728 46.6303 190.684L93.2797 180.845C95.1012 181.872 94.5255 183.783 93.1892 184.064L93.1898 184.064Z" fill="#CCCCCC"/>
<path d="M94.8841 192.109L49.0567 201.775C48.6557 201.868 48.2343 201.805 47.8777 201.6C47.5211 201.394 47.2559 201.06 47.1357 200.666C47.0808 200.46 47.0682 200.246 47.0989 200.035C47.1295 199.825 47.2027 199.623 47.3139 199.442C47.4252 199.26 47.5722 199.104 47.7459 198.981C47.9197 198.859 48.1166 198.773 48.3246 198.729L94.9741 188.889C96.7955 189.916 96.2198 191.827 94.8835 192.109L94.8841 192.109Z" fill="#CCCCCC"/>
<path d="M40.1148 208.445L26.1287 211.395C25.6719 211.49 25.1958 211.401 24.8049 211.146C24.4139 210.891 24.14 210.491 24.0433 210.034L20.5644 193.518C20.4686 193.061 20.5579 192.585 20.8127 192.193C21.0676 191.802 21.4671 191.528 21.9237 191.431L35.9098 188.481C36.3665 188.386 36.8425 188.475 37.2335 188.73C37.6244 188.985 37.8983 189.385 37.9952 189.842L41.4741 206.358C41.5699 206.815 41.4805 207.291 41.2257 207.682C40.9709 208.074 40.5713 208.348 40.1148 208.445V208.445Z" fill="#CCCCCC"/>
<path d="M98.2199 208.607L28.2789 223.359C27.8779 223.452 27.4564 223.39 27.0998 223.184C26.7432 222.978 26.478 222.644 26.3579 222.25C26.3029 222.045 26.2904 221.83 26.321 221.62C26.3517 221.409 26.4248 221.207 26.5361 221.026C26.6473 220.845 26.7943 220.688 26.9681 220.565C27.1419 220.443 27.3388 220.357 27.5468 220.313L98.3104 205.387C100.132 206.414 99.5562 208.325 98.2199 208.607Z" fill="#CCCCCC"/>
<path d="M99.9147 216.653L29.9737 231.406C29.5727 231.499 29.1513 231.436 28.7947 231.23C28.4381 231.024 28.1729 230.691 28.0527 230.297C27.9977 230.091 27.9852 229.877 28.0159 229.666C28.0465 229.456 28.1197 229.254 28.2309 229.072C28.3422 228.891 28.4892 228.734 28.6629 228.612C28.8367 228.489 29.0336 228.404 29.2416 228.36L100.005 213.434C101.827 214.461 101.251 216.371 99.9147 216.653Z" fill="#CCCCCC"/>
<path d="M101.609 224.694L31.6675 239.447C31.2665 239.54 30.8451 239.477 30.4885 239.271C30.1319 239.065 29.8667 238.732 29.7466 238.338C29.6916 238.132 29.6791 237.918 29.7097 237.707C29.7403 237.497 29.8135 237.295 29.9248 237.113C30.036 236.932 30.183 236.775 30.3568 236.653C30.5305 236.53 30.7274 236.445 30.9354 236.401L101.699 221.475C103.521 222.502 102.945 224.412 101.609 224.694Z" fill="#CCCCCC"/>
<path d="M103.303 232.74L33.3624 247.493C32.9613 247.586 32.5399 247.523 32.1833 247.317C31.8267 247.111 31.5615 246.778 31.4414 246.384C31.3864 246.178 31.3739 245.964 31.4045 245.753C31.4352 245.543 31.5083 245.341 31.6196 245.159C31.7308 244.978 31.8778 244.821 32.0516 244.699C32.2254 244.576 32.4223 244.49 32.6303 244.447L103.394 229.521C105.215 230.548 104.64 232.458 103.303 232.74Z" fill="#CCCCCC"/>
<path d="M104.997 240.782L35.0562 255.534C34.6552 255.627 34.2338 255.565 33.8772 255.359C33.5206 255.153 33.2554 254.819 33.1352 254.425C33.0803 254.22 33.0677 254.005 33.0984 253.795C33.129 253.584 33.2022 253.382 33.3134 253.201C33.4247 253.02 33.5717 252.863 33.7454 252.74C33.9192 252.618 34.1161 252.532 34.3241 252.488L105.088 237.562C106.909 238.589 106.333 240.5 104.997 240.782Z" fill="#CCCCCC"/>
<path d="M117.344 203.954C117.185 204.242 117.049 204.543 116.937 204.853L88.3044 211.963L83.3233 206.806L74.564 213.312L82.4954 223.298C83.1362 224.105 84.0212 224.682 85.0175 224.942C86.0139 225.203 87.0678 225.133 88.0211 224.743L119.09 212.039C120.112 212.791 121.338 213.214 122.605 213.252C123.872 213.29 125.122 212.941 126.186 212.252C127.25 211.562 128.08 210.564 128.564 209.392C129.048 208.219 129.163 206.926 128.896 205.686C128.628 204.446 127.989 203.317 127.064 202.449C126.139 201.581 124.972 201.015 123.718 200.827C122.464 200.639 121.182 200.837 120.043 201.396C118.905 201.954 117.963 202.847 117.344 203.954L117.344 203.954Z" fill="#A0616A"/>
<path d="M19.6092 267.227C20.5018 266.951 21.3232 266.483 22.0153 265.855C22.7075 265.227 23.2537 264.455 23.6155 263.593C23.9772 262.731 24.1457 261.8 24.109 260.866C24.0724 259.932 23.8315 259.017 23.4034 258.186L43.1078 203.381L29.4237 200.954L14.3578 255.589C13.0105 256.401 12.0078 257.68 11.5397 259.183C11.0716 260.685 11.1705 262.308 11.8178 263.742C12.4651 265.177 13.6158 266.324 15.0518 266.966C16.4878 267.608 18.1093 267.701 19.6092 267.227Z" fill="#A0616A"/>
<path d="M40.6054 213.109L27.0945 207.92C26.7101 207.773 26.362 207.544 26.0739 207.249C25.7858 206.955 25.5645 206.602 25.4251 206.214C25.2857 205.827 25.2314 205.413 25.266 205.003C25.3005 204.592 25.4231 204.194 25.6253 203.835L32.7132 191.259C33.4793 189.296 34.9923 187.716 36.9204 186.867C38.8485 186.018 41.0345 185.968 42.9989 186.73C44.9634 187.491 46.5462 189 47.4003 190.927C48.2543 192.854 48.31 195.041 47.555 197.009L44.4287 211.056C44.339 211.459 44.1639 211.837 43.915 212.165C43.6662 212.493 43.3496 212.764 42.9867 212.959C42.6239 213.154 42.2234 213.268 41.8124 213.294C41.4015 213.32 40.9898 213.257 40.6054 213.109V213.109Z" fill="#B31B1B"/>
<path d="M71.1013 370.122L78.3943 370.122L81.8636 341.972L71.1001 341.973L71.1013 370.122Z" fill="#A0616A"/>
<path d="M69.2407 367.739L83.603 367.739H83.6036C84.8056 367.739 85.9958 367.976 87.1063 368.436C88.2167 368.896 89.2258 369.571 90.0757 370.421C90.9256 371.272 91.5998 372.282 92.0598 373.393C92.5197 374.504 92.7565 375.695 92.7565 376.898V377.195L69.2412 377.196L69.2407 367.739Z" fill="#2F2E41"/>
<path d="M30.0554 370.122L37.3484 370.122L40.8177 341.972L30.0542 341.973L30.0554 370.122Z" fill="#A0616A"/>
<path d="M28.1953 367.739L42.5576 367.739H42.5582C43.7602 367.739 44.9504 367.976 46.0609 368.436C47.1713 368.896 48.1803 369.571 49.0303 370.421C49.8802 371.272 50.5544 372.282 51.0144 373.393C51.4743 374.504 51.7111 375.695 51.7111 376.898V377.195L28.1958 377.196L28.1953 367.739Z" fill="#2F2E41"/>
<path d="M37.7009 358.792H28.4718C28.1095 358.792 27.7511 358.719 27.4181 358.576C27.0851 358.433 26.7845 358.225 26.5346 357.962C26.2846 357.7 26.0904 357.389 25.9638 357.05C25.8372 356.71 25.7808 356.348 25.7979 355.986L30.1817 261.735L30.4579 261.728L75.0247 260.565L83.7457 354.87C83.7792 355.224 83.7422 355.58 83.6367 355.919C83.5312 356.259 83.3595 356.573 83.1314 356.845C82.9033 357.117 82.6234 357.341 82.308 357.504C81.9926 357.667 81.6481 357.765 81.2943 357.794L70.9281 358.623C70.2768 358.675 69.6291 358.487 69.1069 358.094C68.5846 357.702 68.2238 357.131 68.0923 356.491L54.8326 289.358C54.7964 289.154 54.6883 288.97 54.528 288.839C54.3676 288.708 54.1656 288.639 53.9587 288.644H53.9551C53.7475 288.639 53.5451 288.71 53.3849 288.842C53.2248 288.974 53.1176 289.16 53.0828 289.365L40.3274 356.631C40.2066 357.24 39.8789 357.787 39.4001 358.181C38.9213 358.575 38.3208 358.791 37.7009 358.792Z" fill="#2F2E41"/>
<path d="M54.6071 177.675C62.6762 177.675 69.2176 171.129 69.2176 163.054C69.2176 154.979 62.6762 148.434 54.6071 148.434C46.5379 148.434 39.9966 154.979 39.9966 163.054C39.9966 171.129 46.5379 177.675 54.6071 177.675Z" fill="#A0616A"/>
<path d="M49.7078 272.78C42.7441 272.78 35.5915 270.948 29.662 265.533C29.3465 265.247 29.1029 264.89 28.951 264.492C28.7991 264.093 28.7432 263.665 28.7879 263.241C29.4225 257.535 32.5011 228.072 30.7674 208.39C30.429 204.714 30.9491 201.01 32.2866 197.569C33.6241 194.128 35.7423 191.046 38.4742 188.565C41.1582 186.09 44.3804 184.272 47.8865 183.256C51.3925 182.24 55.0866 182.054 58.6771 182.711H58.6772C58.8592 182.744 59.041 182.778 59.2231 182.813C70.9203 185.078 79.0475 195.911 78.1279 208.011C76.786 225.667 75.583 249.549 77.4719 263.055C77.5502 263.608 77.4538 264.171 77.1962 264.666C76.9386 265.161 76.5327 265.563 76.0354 265.815C71.7376 267.988 60.9698 272.78 49.7078 272.78Z" fill="#B31B1B"/>
<path d="M68.7728 214.161C68.43 213.933 68.1404 213.634 67.9238 213.283C67.7073 212.933 67.5688 212.54 67.5179 212.131L65.7379 197.85C65.1728 195.819 65.4356 193.647 66.4685 191.81C67.5015 189.972 69.2203 188.62 71.2482 188.049C73.2761 187.478 75.4475 187.735 77.2865 188.763C79.1254 189.792 80.4817 191.508 81.0581 193.536L86.9213 206.727C87.0886 207.104 87.1728 207.512 87.1683 207.924C87.1637 208.336 87.0705 208.742 86.8949 209.115C86.7194 209.488 86.4656 209.818 86.1509 210.084C85.8362 210.35 85.468 210.544 85.0713 210.655L71.1293 214.537C70.7326 214.648 70.3167 214.672 69.91 214.607C69.5033 214.542 69.1154 214.39 68.7728 214.161Z" fill="#B31B1B"/>
<path d="M49.5065 177.469C48.1236 177.494 46.7493 177.246 45.4631 176.737C44.8971 176.518 44.3096 176.339 43.7447 176.121C38.7558 174.192 35.4695 168.875 35.3518 163.524C35.2341 158.174 38.0031 152.98 42.1149 149.558C46.2266 146.135 51.5524 144.378 56.8853 143.972C62.6296 143.534 69.098 144.992 72.3079 149.779C73.1623 151.053 73.7598 152.599 73.2536 154.138C73.1019 154.602 72.8311 155.018 72.4682 155.345C71.0347 156.621 69.6055 155.662 68.1442 155.577C66.1356 155.46 64.3316 157.087 63.6832 158.993C63.0348 160.899 63.3202 162.997 63.8437 164.941C64.2426 166.111 64.494 167.326 64.5922 168.558C64.6345 169.176 64.5184 169.794 64.2549 170.355C63.9914 170.915 63.5893 171.399 63.0867 171.76C61.8316 172.519 60.1833 172.08 58.9274 171.322C57.6716 170.564 56.5864 169.51 55.2299 168.952C53.8733 168.394 52.0508 168.518 51.2612 169.755C51.0103 170.205 50.8405 170.696 50.7595 171.205C50.0517 174.432 50.2143 174.242 49.5065 177.469V177.469Z" fill="#2F2E41"/>
<path d="M114.017 378H0.992325C0.834557 378 0.683251 377.937 0.571692 377.826C0.460134 377.714 0.397461 377.563 0.397461 377.405C0.397461 377.247 0.460134 377.096 0.571692 376.984C0.683251 376.872 0.834557 376.81 0.992325 376.81H114.017C114.174 376.81 114.326 376.872 114.437 376.984C114.549 377.096 114.611 377.247 114.611 377.405C114.611 377.563 114.549 377.714 114.437 377.826C114.326 377.937 114.174 378 114.017 378Z" fill="#CCCCCC"/>
<path d="M403.325 255.153L322.389 300.582C320.05 301.892 317.286 302.22 314.705 301.493C312.124 300.767 309.936 299.046 308.622 296.707L271.663 230.772C270.354 228.43 270.027 225.665 270.753 223.082C271.479 220.499 273.199 218.31 275.536 216.995L356.472 171.565C358.811 170.255 361.575 169.927 364.156 170.654C366.737 171.38 368.925 173.102 370.239 175.44L407.198 241.376C408.507 243.717 408.834 246.483 408.108 249.066C407.382 251.648 405.662 253.837 403.325 255.153Z" fill="white"/>
<path d="M403.325 255.153L322.389 300.582C320.05 301.892 317.286 302.22 314.705 301.493C312.124 300.767 309.936 299.046 308.622 296.707L271.663 230.772C270.354 228.43 270.027 225.665 270.753 223.082C271.479 220.499 273.199 218.31 275.536 216.995L356.472 171.565C358.811 170.255 361.575 169.927 364.156 170.654C366.737 171.38 368.925 173.102 370.239 175.44L407.198 241.376C408.507 243.717 408.834 246.483 408.108 249.066C407.382 251.648 405.662 253.837 403.325 255.153ZM276.118 218.033C274.056 219.194 272.538 221.125 271.898 223.404C271.257 225.683 271.546 228.123 272.701 230.189L309.66 296.125C310.82 298.188 312.75 299.707 315.027 300.348C317.304 300.989 319.743 300.7 321.807 299.544L402.743 254.114C404.805 252.954 406.323 251.022 406.963 248.743C407.604 246.464 407.315 244.024 406.16 241.958L369.201 176.023C368.042 173.959 366.111 172.441 363.834 171.799C361.557 171.158 359.118 171.448 357.054 172.603L276.118 218.033Z" fill="#3F3D56"/>
<path d="M358.371 196.529L317.524 219.457C317.169 219.666 316.748 219.732 316.346 219.642C315.944 219.552 315.592 219.313 315.359 218.973C315.246 218.793 315.17 218.592 315.136 218.382C315.102 218.172 315.112 217.957 315.164 217.751C315.216 217.545 315.309 217.351 315.439 217.183C315.568 217.014 315.73 216.873 315.916 216.769L357.495 193.43C359.54 193.865 359.562 195.861 358.37 196.529L358.371 196.529Z" fill="#CCCCCC"/>
<path d="M362.39 203.699L321.543 226.627C321.188 226.836 320.767 226.902 320.365 226.812C319.963 226.722 319.611 226.483 319.378 226.143C319.265 225.963 319.189 225.762 319.155 225.552C319.121 225.342 319.131 225.127 319.183 224.921C319.235 224.715 319.328 224.521 319.458 224.353C319.587 224.184 319.749 224.043 319.935 223.939L361.514 200.6C363.559 201.035 363.581 203.031 362.389 203.699L362.39 203.699Z" fill="#CCCCCC"/>
<path d="M315.001 235.666L302.535 242.663C302.127 242.891 301.646 242.948 301.197 242.822C300.748 242.695 300.367 242.396 300.138 241.988L291.886 227.267C291.659 226.86 291.602 226.378 291.728 225.929C291.854 225.479 292.154 225.098 292.561 224.869L305.027 217.872C305.434 217.644 305.915 217.587 306.364 217.713C306.814 217.84 307.194 218.139 307.423 218.546L315.675 233.268C315.903 233.675 315.96 234.157 315.833 234.606C315.707 235.056 315.408 235.437 315.001 235.666L315.001 235.666Z" fill="#CCCCCC"/>
<path d="M370.5 218.446L308.159 253.438C307.805 253.647 307.384 253.713 306.982 253.623C306.58 253.533 306.227 253.294 305.995 252.954C305.881 252.774 305.805 252.573 305.772 252.363C305.738 252.153 305.748 251.939 305.8 251.732C305.852 251.526 305.945 251.333 306.074 251.164C306.204 250.995 306.366 250.854 306.551 250.75L369.625 215.346C371.67 215.782 371.691 217.777 370.5 218.446Z" fill="#CCCCCC"/>
<path d="M374.52 225.618L312.18 260.61C311.825 260.819 311.404 260.885 311.002 260.795C310.6 260.705 310.247 260.466 310.015 260.126C309.901 259.946 309.825 259.745 309.792 259.535C309.758 259.325 309.768 259.11 309.82 258.904C309.872 258.698 309.965 258.504 310.094 258.336C310.224 258.167 310.386 258.026 310.571 257.922L373.645 222.518C375.69 222.954 375.711 224.949 374.52 225.618V225.618Z" fill="#CCCCCC"/>
<path d="M378.537 232.785L316.197 267.777C315.842 267.986 315.421 268.052 315.02 267.962C314.618 267.873 314.265 267.633 314.033 267.293C313.919 267.114 313.843 266.913 313.809 266.703C313.776 266.493 313.785 266.278 313.837 266.072C313.889 265.865 313.983 265.672 314.112 265.503C314.241 265.334 314.403 265.193 314.589 265.089L377.662 229.686C379.707 230.121 379.729 232.117 378.537 232.785Z" fill="#CCCCCC"/>
<path d="M382.557 239.957L320.217 274.949C319.862 275.157 319.441 275.224 319.04 275.134C318.638 275.044 318.285 274.805 318.053 274.465C317.939 274.285 317.863 274.084 317.829 273.874C317.796 273.664 317.805 273.449 317.857 273.243C317.909 273.037 318.003 272.843 318.132 272.674C318.261 272.506 318.423 272.365 318.609 272.261L381.682 236.857C383.727 237.293 383.749 239.288 382.557 239.957H382.557Z" fill="#CCCCCC"/>
<path d="M386.575 247.125L324.235 282.117C323.88 282.325 323.459 282.392 323.057 282.302C322.655 282.212 322.303 281.973 322.07 281.633C321.957 281.453 321.88 281.252 321.847 281.042C321.813 280.832 321.823 280.617 321.875 280.411C321.927 280.205 322.02 280.011 322.15 279.842C322.279 279.673 322.441 279.533 322.626 279.429L385.7 244.025C387.745 244.461 387.766 246.456 386.575 247.124V247.125Z" fill="#CCCCCC"/>
<path d="M375.699 273.985C376.039 273.236 376.21 272.421 376.201 271.598C376.191 270.776 376.002 269.965 375.646 269.224C375.29 268.482 374.775 267.828 374.139 267.307C373.503 266.786 372.76 266.411 371.964 266.208L370.268 246.281L362.115 252.718L364.975 270.654C364.723 272.016 364.979 273.423 365.695 274.608C366.411 275.794 367.536 276.676 368.858 277.086C370.18 277.497 371.607 277.408 372.868 276.836C374.129 276.265 375.136 275.25 375.699 273.985Z" fill="#FFB8B8"/>
<path d="M370.422 264.121L363.65 264.929C363.306 264.97 362.958 264.939 362.626 264.839C362.294 264.739 361.987 264.571 361.723 264.347C361.459 264.122 361.244 263.846 361.092 263.534C360.94 263.223 360.853 262.883 360.838 262.537L359.851 239.677L347.015 204.588C346.501 203.499 346.266 202.299 346.333 201.097C346.399 199.894 346.765 198.727 347.397 197.702C347.711 197.207 348.071 196.742 348.472 196.313C349.262 195.462 350.246 194.814 351.34 194.426C352.434 194.037 353.606 193.919 354.755 194.081C355.94 194.238 357.069 194.677 358.05 195.359C359.031 196.041 359.836 196.948 360.396 198.003L368.767 215.556C372.268 222.898 373.922 230.985 373.582 239.113L372.638 261.726C372.614 262.318 372.381 262.882 371.982 263.319C371.583 263.756 371.042 264.039 370.455 264.116L370.422 264.121Z" fill="#B31B1B"/>
<path d="M394.47 362.918L388.192 365.675L374.575 342.755L383.841 338.686L394.47 362.918Z" fill="#FFB8B8"/>
<path d="M398.743 368.305L378.499 377.196L378.387 376.94C377.933 375.905 377.687 374.79 377.663 373.659C377.639 372.529 377.838 371.405 378.249 370.351C378.659 369.298 379.273 368.335 380.055 367.519C380.837 366.703 381.773 366.049 382.807 365.595L382.808 365.594L395.172 360.164L398.743 368.305Z" fill="#2F2E41"/>
<path d="M310.184 370.545H303.328L300.066 344.081L310.186 344.082L310.184 370.545Z" fill="#FFB8B8"/>
<path d="M311.933 377.197L289.825 377.196V376.916C289.825 375.785 290.048 374.665 290.48 373.621C290.913 372.576 291.546 371.627 292.345 370.827C293.145 370.028 294.093 369.393 295.137 368.961C296.181 368.528 297.3 368.305 298.43 368.305H298.431L311.933 368.306L311.933 377.197Z" fill="#2F2E41"/>
<path d="M376.937 361.498L338.743 276.205C338.674 276.045 338.557 275.911 338.408 275.821C338.26 275.73 338.087 275.688 337.913 275.7C337.74 275.713 337.574 275.779 337.44 275.889C337.305 276 337.209 276.149 337.163 276.317L313.891 358.7C313.738 359.277 313.384 359.779 312.893 360.118C312.401 360.456 311.806 360.608 311.212 360.546L298.503 359.274C297.848 359.205 297.246 358.883 296.824 358.378C296.402 357.872 296.194 357.221 296.244 356.564C300.286 306.249 306.659 258.762 325.75 227.675L325.851 227.51L354.728 233.176L393.28 356.025C393.471 356.658 393.406 357.34 393.1 357.926C392.794 358.512 392.271 358.954 391.644 359.159L380.018 362.898C379.423 363.092 378.776 363.056 378.206 362.797C377.636 362.538 377.183 362.074 376.937 361.498Z" fill="#2F2E41"/>
<path d="M339.809 183.984C347.395 183.984 353.544 177.83 353.544 170.239C353.544 162.648 347.395 156.494 339.809 156.494C332.222 156.494 326.073 162.648 326.073 170.239C326.073 177.83 332.222 183.984 339.809 183.984Z" fill="#FFB8B8"/>
<path d="M323.975 230.055L323.8 230.019L323.759 229.845C321.908 222.026 321.864 213.493 323.627 204.484C324.522 199.879 327.012 195.738 330.658 192.789C334.304 189.841 338.873 188.275 343.56 188.367C348.645 188.47 353.499 190.514 357.128 194.08C360.757 197.647 362.887 202.466 363.082 207.553C363.671 223.049 357.343 236.483 357.279 236.617L357.185 236.814L323.975 230.055Z" fill="#B31B1B"/>
<path d="M287.153 256.205C287.967 256.085 288.744 255.787 289.43 255.334C290.116 254.881 290.694 254.282 291.124 253.581C291.554 252.88 291.825 252.093 291.919 251.275C292.012 250.458 291.925 249.63 291.663 248.85L307.484 236.632L297.661 233.259L284.143 245.379C282.863 245.905 281.82 246.882 281.211 248.127C280.603 249.371 280.472 250.795 280.843 252.13C281.214 253.464 282.061 254.616 283.224 255.367C284.387 256.118 285.785 256.416 287.153 256.205V256.205Z" fill="#FFB8B8"/>
<path d="M295.794 246.99C295.279 247.295 294.672 247.405 294.083 247.301C293.494 247.197 292.961 246.886 292.581 246.423L288.235 241.164C288.014 240.897 287.851 240.587 287.755 240.254C287.66 239.921 287.634 239.571 287.68 239.228C287.725 238.884 287.841 238.553 288.021 238.257C288.2 237.96 288.438 237.704 288.721 237.503L307.39 224.292L329.915 194.49C330.551 193.467 331.432 192.62 332.478 192.025C333.525 191.429 334.703 191.105 335.906 191.081C336.493 191.078 337.078 191.129 337.655 191.234C338.798 191.437 339.875 191.914 340.794 192.624C341.713 193.334 342.447 194.255 342.933 195.31C343.442 196.392 343.686 197.579 343.644 198.774C343.602 199.969 343.276 201.136 342.693 202.18L326.015 229.209L325.978 229.268L295.794 246.99Z" fill="#B31B1B"/>
<path d="M342.265 169.386C341.253 167.72 339.019 167.249 337.079 167.439C335.14 167.629 333.253 168.311 331.305 168.296C325.893 168.254 321.716 161.654 323.991 156.741C325.857 152.711 330.517 150.942 334.733 149.553C343.571 146.641 353.724 143.844 361.744 148.565C364.3 150.114 366.396 152.318 367.817 154.948C369.237 157.579 369.929 160.542 369.823 163.53C369.642 167.246 368.22 171.062 369.423 174.582C370.81 178.643 375.209 180.821 379.366 181.875C386.654 183.723 394.337 183.425 401.67 185.082C409.003 186.739 416.518 191.139 418.494 198.397C419.793 203.165 418.438 208.297 416.194 212.699C413.905 217.19 410.724 221.166 406.846 224.383C402.967 227.601 398.473 229.993 393.639 231.411C388.805 232.83 383.732 233.247 378.731 232.635C373.731 232.024 368.907 230.397 364.557 227.855C355.692 222.675 349.292 213.92 345.476 204.383C343.312 198.82 341.789 193.029 340.936 187.121C340.082 181.59 340.807 176.001 342.355 170.623C342.428 170.423 342.458 170.208 342.442 169.995C342.427 169.782 342.367 169.574 342.265 169.386Z" fill="#2F2E41"/>
<path d="M391.818 378H278.794C278.636 378 278.485 377.937 278.373 377.826C278.261 377.714 278.199 377.563 278.199 377.405C278.199 377.247 278.261 377.096 278.373 376.984C278.485 376.872 278.636 376.81 278.794 376.81H391.818C391.976 376.81 392.127 376.872 392.238 376.984C392.35 377.096 392.413 377.247 392.413 377.405C392.413 377.563 392.35 377.714 392.238 377.826C392.127 377.937 391.976 378 391.818 378Z" fill="#CCCCCC"/>
</g>
<defs>
<clipPath id="clip0">
<rect width="419" height="378" fill="white"/>
</clipPath>
</defs>
</svg>
