<svg width="118" height="19" viewBox="0 0 118 19" fill="none" xmlns="http://www.w3.org/2000/svg">
<path d="M8.24 18.288C6.544 18.288 5.088 17.928 3.872 17.208C2.656 16.472 1.72 15.456 1.064 14.16C0.408 12.848 0.08 11.336 0.08 9.624C0.08 7.912 0.408 6.4 1.064 5.088C1.72 3.776 2.656 2.752 3.872 2.016C5.088 1.28 6.544 0.912 8.24 0.912C10.256 0.912 11.904 1.416 13.184 2.424C14.48 3.416 15.288 4.816 15.608 6.624H12.224C12.016 5.712 11.568 5 10.88 4.488C10.208 3.96 9.312 3.696 8.192 3.696C6.64 3.696 5.424 4.224 4.544 5.28C3.664 6.336 3.224 7.784 3.224 9.624C3.224 11.464 3.664 12.912 4.544 13.968C5.424 15.008 6.64 15.528 8.192 15.528C9.312 15.528 10.208 15.288 10.88 14.808C11.568 14.312 12.016 13.632 12.224 12.768H15.608C15.288 14.496 14.48 15.848 13.184 16.824C11.904 17.8 10.256 18.288 8.24 18.288ZM23.9773 18.288C22.8253 18.288 21.7853 18.024 20.8573 17.496C19.9453 16.968 19.2173 16.24 18.6733 15.312C18.1453 14.368 17.8813 13.28 17.8813 12.048C17.8813 10.816 18.1533 9.736 18.6973 8.808C19.2413 7.864 19.9693 7.128 20.8813 6.6C21.8093 6.072 22.8493 5.808 24.0013 5.808C25.1373 5.808 26.1613 6.072 27.0733 6.6C28.0013 7.128 28.7293 7.864 29.2573 8.808C29.8013 9.736 30.0733 10.816 30.0733 12.048C30.0733 13.28 29.8013 14.368 29.2573 15.312C28.7293 16.24 28.0013 16.968 27.0733 17.496C26.1453 18.024 25.1133 18.288 23.9773 18.288ZM23.9773 15.624C24.7773 15.624 25.4733 15.328 26.0653 14.736C26.6573 14.128 26.9533 13.232 26.9533 12.048C26.9533 10.864 26.6573 9.976 26.0653 9.384C25.4733 8.776 24.7853 8.472 24.0013 8.472C23.1853 8.472 22.4813 8.776 21.8893 9.384C21.3133 9.976 21.0253 10.864 21.0253 12.048C21.0253 13.232 21.3133 14.128 21.8893 14.736C22.4813 15.328 23.1773 15.624 23.9773 15.624ZM37.294 18.288C35.806 18.288 34.654 17.824 33.838 16.896C33.038 15.968 32.638 14.608 32.638 12.816V6.096H35.686V12.528C35.686 13.552 35.894 14.336 36.31 14.88C36.726 15.424 37.382 15.696 38.278 15.696C39.126 15.696 39.822 15.392 40.366 14.784C40.926 14.176 41.206 13.328 41.206 12.24V6.096H44.278V18H41.566L41.326 15.984C40.958 16.688 40.422 17.248 39.718 17.664C39.03 18.08 38.222 18.288 37.294 18.288ZM47.4416 18V6.096H50.1776L50.4656 8.328C50.8976 7.56 51.4816 6.952 52.2176 6.504C52.9696 6.04 53.8496 5.808 54.8576 5.808V9.048H53.9936C53.3216 9.048 52.7216 9.152 52.1936 9.36C51.6656 9.568 51.2496 9.928 50.9456 10.44C50.6576 10.952 50.5136 11.664 50.5136 12.576V18H47.4416ZM61.8872 18.288C60.8312 18.288 59.9032 18.12 59.1032 17.784C58.3032 17.432 57.6632 16.952 57.1832 16.344C56.7032 15.736 56.4152 15.032 56.3192 14.232H59.4152C59.5112 14.696 59.7672 15.096 60.1832 15.432C60.6152 15.752 61.1672 15.912 61.8392 15.912C62.5112 15.912 62.9992 15.776 63.3032 15.504C63.6232 15.232 63.7832 14.92 63.7832 14.568C63.7832 14.056 63.5592 13.712 63.1112 13.536C62.6632 13.344 62.0392 13.16 61.2392 12.984C60.7272 12.872 60.2072 12.736 59.6792 12.576C59.1512 12.416 58.6632 12.216 58.2152 11.976C57.7832 11.72 57.4312 11.4 57.1592 11.016C56.8872 10.616 56.7512 10.128 56.7512 9.552C56.7512 8.496 57.1672 7.608 57.9992 6.888C58.8472 6.168 60.0312 5.808 61.5512 5.808C62.9592 5.808 64.0792 6.136 64.9112 6.792C65.7592 7.448 66.2632 8.352 66.4232 9.504H63.5192C63.3432 8.624 62.6792 8.184 61.5272 8.184C60.9512 8.184 60.5032 8.296 60.1832 8.52C59.8792 8.744 59.7272 9.024 59.7272 9.36C59.7272 9.712 59.9592 9.992 60.4232 10.2C60.8872 10.408 61.5032 10.6 62.2712 10.776C63.1032 10.968 63.8632 11.184 64.5512 11.424C65.2552 11.648 65.8152 11.992 66.2312 12.456C66.6472 12.904 66.8552 13.552 66.8552 14.4C66.8712 15.136 66.6792 15.8 66.2792 16.392C65.8792 16.984 65.3032 17.448 64.5512 17.784C63.7992 18.12 62.9112 18.288 61.8872 18.288ZM73.6906 18.288C72.6666 18.288 71.8266 18.128 71.1706 17.808C70.5146 17.472 70.0266 17.032 69.7066 16.488C69.3866 15.944 69.2266 15.344 69.2266 14.688C69.2266 13.584 69.6586 12.688 70.5226 12C71.3866 11.312 72.6826 10.968 74.4106 10.968H77.4346V10.68C77.4346 9.864 77.2026 9.264 76.7386 8.88C76.2746 8.496 75.6986 8.304 75.0106 8.304C74.3866 8.304 73.8426 8.456 73.3786 8.76C72.9146 9.048 72.6266 9.48 72.5146 10.056H69.5146C69.5946 9.192 69.8826 8.44 70.3786 7.8C70.8906 7.16 71.5466 6.672 72.3466 6.336C73.1466 5.984 74.0426 5.808 75.0346 5.808C76.7306 5.808 78.0666 6.232 79.0426 7.08C80.0186 7.928 80.5066 9.128 80.5066 10.68V18H77.8906L77.6026 16.08C77.2506 16.72 76.7546 17.248 76.1146 17.664C75.4906 18.08 74.6826 18.288 73.6906 18.288ZM74.3866 15.888C75.2666 15.888 75.9466 15.6 76.4266 15.024C76.9226 14.448 77.2346 13.736 77.3626 12.888H74.7466C73.9306 12.888 73.3466 13.04 72.9946 13.344C72.6426 13.632 72.4666 13.992 72.4666 14.424C72.4666 14.888 72.6426 15.248 72.9946 15.504C73.3466 15.76 73.8106 15.888 74.3866 15.888ZM90.5041 18.288C89.6081 18.288 88.8241 18.12 88.1521 17.784C87.4801 17.448 86.9361 16.976 86.5201 16.368L86.1841 18H83.4481V0.719999H86.5201V7.8C86.9041 7.272 87.4081 6.808 88.0321 6.408C88.6721 6.008 89.4961 5.808 90.5041 5.808C91.6241 5.808 92.6241 6.08 93.5041 6.624C94.3841 7.168 95.0801 7.912 95.5921 8.856C96.1041 9.8 96.3601 10.872 96.3601 12.072C96.3601 13.272 96.1041 14.344 95.5921 15.288C95.0801 16.216 94.3841 16.952 93.5041 17.496C92.6241 18.024 91.6241 18.288 90.5041 18.288ZM89.8561 15.6C90.8321 15.6 91.6401 15.272 92.2801 14.616C92.9201 13.96 93.2401 13.112 93.2401 12.072C93.2401 11.032 92.9201 10.176 92.2801 9.504C91.6401 8.832 90.8321 8.496 89.8561 8.496C88.8641 8.496 88.0481 8.832 87.4081 9.504C86.7841 10.16 86.4721 11.008 86.4721 12.048C86.4721 13.088 86.7841 13.944 87.4081 14.616C88.0481 15.272 88.8641 15.6 89.8561 15.6ZM99.1144 18V0.719999H102.186V18H99.1144ZM111.119 18.288C109.919 18.288 108.855 18.032 107.927 17.52C106.999 17.008 106.271 16.288 105.743 15.36C105.215 14.432 104.951 13.36 104.951 12.144C104.951 10.912 105.207 9.816 105.719 8.856C106.247 7.896 106.967 7.152 107.879 6.624C108.807 6.08 109.895 5.808 111.143 5.808C112.311 5.808 113.343 6.064 114.239 6.576C115.135 7.088 115.831 7.792 116.327 8.688C116.839 9.568 117.095 10.552 117.095 11.64C117.095 11.816 117.087 12 117.071 12.192C117.071 12.384 117.063 12.584 117.047 12.792H107.999C108.063 13.72 108.383 14.448 108.959 14.976C109.551 15.504 110.263 15.768 111.095 15.768C111.719 15.768 112.239 15.632 112.655 15.36C113.087 15.072 113.407 14.704 113.615 14.256H116.735C116.511 15.008 116.135 15.696 115.607 16.32C115.095 16.928 114.455 17.408 113.687 17.76C112.935 18.112 112.079 18.288 111.119 18.288ZM111.143 8.304C110.391 8.304 109.727 8.52 109.151 8.952C108.575 9.368 108.207 10.008 108.047 10.872H113.975C113.927 10.088 113.639 9.464 113.111 9C112.583 8.536 111.927 8.304 111.143 8.304Z" fill="#B00020"/>
</svg>
