<svg width="24" height="24" viewBox="0 0 24 24" xmlns="http://www.w3.org/2000/svg">
<path d="M15.904 13.0506L13.7827 15.1719L19.7789 21.1681L21.9002 19.0468L15.904 13.0506Z" />
<path d="M17.5 9.9998C19.43 9.9998 21 8.4298 21 6.4998C21 5.9198 20.84 5.3798 20.59 4.8998L17.89 7.5998L16.4 6.1098L19.1 3.4098C18.62 3.1598 18.08 2.9998 17.5 2.9998C15.57 2.9998 14 4.5698 14 6.4998C14 6.9098 14.08 7.2998 14.21 7.6598L12.36 9.5098L10.58 7.7298L11.29 7.0198L9.88001 5.6098L12 3.4898C10.83 2.3198 8.93001 2.3198 7.76001 3.4898L4.22001 7.0298L5.63001 8.4398H2.81001L2.10001 9.1498L5.64001 12.6898L6.35001 11.9798V9.1498L7.76001 10.5598L8.47001 9.8498L10.25 11.6298L2.84001 19.0398L4.96001 21.1598L16.34 9.7898C16.7 9.9198 17.09 9.9998 17.5 9.9998Z" />
</svg>
